<?xml version="1.0" encoding="UTF-8"?>
<svg width="100px" height="114px" viewBox="0 0 100 114" version="1.1" xmlns="http://www.w3.org/2000/svg" xmlns:xlink="http://www.w3.org/1999/xlink">
    <!-- Generator: sketchtool 54.1 (76490) - https://sketchapp.com -->
    <title>CCD44360-B3D2-4EC7-88CB-D6317B180B1B</title>
    <desc>Created with sketchtool.</desc>
    <defs>
        <polygon id="path-1" points="8.49353985e-05 0.163131763 99.5168246 0.163131763 99.5168246 35.1089523 8.49353985e-05 35.1089523"></polygon>
        <polygon id="path-3" points="0 0.166722358 49.6472602 0.166722358 49.6472602 86.230828 0 86.230828"></polygon>
        <polygon id="path-5" points="0.101724296 0.166609269 49.8370625 0.166609269 49.8370625 86.230828 0.101724296 86.230828"></polygon>
    </defs>
    <g id="Page-1" stroke="none" stroke-width="1" fill="none" fill-rule="evenodd">
        <g id="Dashboard" transform="translate(-2010.000000, -3655.000000)">
            <g id="proxify-logo" transform="translate(2010.000000, 3655.000000)">
                <polygon id="Fill-1" fill="#E9E9E9" points="25 42.6791977 49.1284645 57 73 42.9638906 49.1284645 29"></polygon>
                <g id="Group-15">
                    <g id="Group-4">
                        <mask id="mask-2" fill="white">
                            <use xlink:href="#path-1"></use>
                        </mask>
                        <g id="Clip-3"></g>
                        <path d="M99.5169095,27.5701162 L53.1945588,1.13711603 C53.1945588,1.13711603 51.6430722,0.163131763 49.7082438,0.163131763 C47.7736985,0.163131763 46.7989233,0.864852797 46.7989233,0.864852797 L8.49353985e-05,27.5701162 L12.947354,35.0481666 L47.0350437,15.5964709 C47.0350437,15.5964709 48.132409,14.7293563 49.7082438,14.7293563 C51.2843617,14.7293563 52.643328,15.6889217 52.643328,15.6889217 L86.6760929,35.1089523" id="Fill-2" fill="#E9E9E9" mask="url(#mask-2)"></path>
                    </g>
                    <polygon id="Fill-5" fill="#FEFEFE" points="49.6473734 85.2665129 49.6473734 57.0336917 25.4523927 42.4493728 25.4523927 70.404559"></polygon>
                    <g id="Group-9" transform="translate(0.000000, 27.424231)">
                        <mask id="mask-4" fill="white">
                            <use xlink:href="#path-3"></use>
                        </mask>
                        <g id="Clip-8"></g>
                        <path d="M-2.83117995e-05,0.166722358 L0.237507686,53.4438033 C0.237507686,53.4438033 0.14379563,55.2289228 1.1109267,56.9020836 C2.07834089,58.5752444 3.19920503,59.1107237 3.19920503,59.1107237 L49.6472602,86.2310259 L49.6472602,71.2947156 L15.8568444,51.5405052 C15.8568444,51.5405052 14.5312859,50.9821252 13.7430854,49.6191127 C12.9554511,48.2561002 13.1329661,46.6445732 13.1329661,46.6445732 L12.9582823,7.50227995" id="Fill-7" fill="#FEFEFE" mask="url(#mask-4)"></path>
                    </g>
                    <polygon id="Fill-10" fill="#CECECD" points="73.5846602 42.8018731 49.6473168 57.0336351 49.6473168 85.2664564 73.5846602 71.1811454"></polygon>
                    <g id="Group-14" transform="translate(49.545649, 27.424231)">
                        <mask id="mask-6" fill="white">
                            <use xlink:href="#path-5"></use>
                        </mask>
                        <g id="Clip-13"></g>
                        <path d="M0.101724296,86.2309129 L46.1636065,59.386832 C46.1636065,59.386832 47.7589764,58.575414 48.7261075,56.9022533 C49.6935217,55.2290925 49.5972615,53.9921749 49.5972615,53.9921749 L49.8370625,0.166609269 L36.8781856,7.62486908 L36.7035018,46.8304925 C36.7035018,46.8304925 36.8818661,48.2562698 36.0936656,49.6189996 C35.3057483,50.9820121 33.8193788,51.6342565 33.8193788,51.6342565 L0.101724296,71.3565191" id="Fill-12" fill="#CECECD" mask="url(#mask-6)"></path>
                    </g>
                </g>
            </g>
        </g>
    </g>
</svg>